<?xml version="1.0" encoding="UTF-8" standalone="no"?>
<svg
   aria-hidden="true"
   focusable="false"
   data-prefix="fas"
   data-icon="question"
   class="svg-inline--fa fa-question fa-w-12"
   role="img"
   viewBox="0 0 384 512"
   version="1.1"
   id="svg4"
   sodipodi:docname="question-solid.svg"
   inkscape:version="1.1 (ce6663b3b7, 2021-05-25)"
   xmlns:inkscape="http://www.inkscape.org/namespaces/inkscape"
   xmlns:sodipodi="http://sodipodi.sourceforge.net/DTD/sodipodi-0.dtd"
   xmlns="http://www.w3.org/2000/svg"
   xmlns:svg="http://www.w3.org/2000/svg">
  <defs
     id="defs8" />
  <sodipodi:namedview
     id="namedview6"
     pagecolor="#ffffff"
     bordercolor="#666666"
     borderopacity="1.0"
     inkscape:pageshadow="2"
     inkscape:pageopacity="0.0"
     inkscape:pagecheckerboard="0"
     showgrid="false"
     inkscape:zoom="1.2109375"
     inkscape:cx="53.264516"
     inkscape:cy="256.4129"
     inkscape:window-width="1600"
     inkscape:window-height="792"
     inkscape:window-x="0"
     inkscape:window-y="27"
     inkscape:window-maximized="1"
     inkscape:current-layer="svg4" />
  <path
     fill="currentColor"
     d="M202.021 0C122.202 0 70.503 32.703 29.914 91.026c-7.363 10.58-5.093 25.086 5.178 32.874l43.138 32.709c10.373 7.865 25.132 6.026 33.253-4.148 25.049-31.381 43.63-49.449 82.757-49.449 30.764 0 68.816 19.799 68.816 49.631 0 22.552-18.617 34.134-48.993 51.164-35.423 19.86-82.299 44.576-82.299 106.405V320c0 13.255 10.745 24 24 24h72.471c13.255 0 24-10.745 24-24v-5.773c0-42.86 125.268-44.645 125.268-160.627C377.504 66.256 286.902 0 202.021 0zM192 373.459c-38.196 0-69.271 31.075-69.271 69.271 0 38.195 31.075 69.27 69.271 69.27s69.271-31.075 69.271-69.271-31.075-69.27-69.271-69.27z"
     id="path2" />
  <path
     style="fill:#ffffff;stroke-width:0.825806"
     d="m 149.88387,342.77804 c -6.63236,-2.07229 -12.14215,-6.58638 -15.46843,-12.67306 -1.27204,-2.32769 -1.45267,-4.91143 -1.39912,-20.01466 0.0567,-16.0073 0.2283,-17.96333 2.22913,-25.41613 5.68533,-21.17709 18.95976,-40.21972 38.1739,-54.7618 10.54194,-7.97858 15.23952,-10.94868 38.41379,-24.28755 25.77831,-14.83773 32.3466,-19.21178 39.68084,-26.42484 18.3465,-18.04335 14.90004,-44.457 -7.92609,-60.74538 -15.36505,-10.96428 -36.71655,-16.95893 -55.71692,-15.64309 -28.82262,1.99607 -46.78293,12.81219 -72.00277,43.36178 -9.96278,12.06822 -13.74235,14.44573 -22.964974,14.44592 -4.787479,1e-4 -7.03719,-0.424 -9.909678,-1.86811 C 79.772169,157.13163 44.474357,130.7951 34.46542,122.54315 27.55417,116.84511 24.563939,106.9228 27.131988,98.209049 29.350929,90.679874 47.454328,67.642121 62.510512,53.187583 99.431847,17.741625 143.8147,0.79471806 199.81494,0.76000495 c 30.7265,-0.0190464 55.30359,5.72300635 83.49535,19.50738605 48.88365,23.901695 82.32263,64.22948 91.75112,110.652889 2.30458,11.34713 2.06202,37.34823 -0.4581,49.10553 -5.19895,24.25507 -14.03371,40.38497 -31.88822,58.21935 -11.71856,11.70534 -20.5131,18.21524 -41.48238,30.70611 -28.9363,17.23661 -32.6488,19.66257 -38.69892,25.28804 -8.31689,7.73313 -10.06818,11.52403 -10.98235,23.7727 -0.44436,5.95368 -1.21798,10.49297 -2.06865,12.13799 -2.2514,4.35373 -6.30516,8.4091 -10.75039,10.75465 l -4.20337,2.21793 -41.29032,0.15026 c -22.70968,0.0826 -42.21936,-0.14002 -43.35484,-0.4948 z"
     id="path156" />
  <path
     style="fill:#ffffff;stroke-width:0.825806"
     d="m 185.27079,511.07987 c -23.29272,-1.91675 -45.1318,-17.48639 -55.57056,-39.61768 -4.24225,-8.99402 -5.565,-14.79077 -6.01337,-26.35251 -0.49395,-12.73725 1.31427,-21.47036 6.75393,-32.61936 8.46542,-17.35049 25.42913,-31.34523 44.21727,-36.47841 7.53556,-2.05882 27.14832,-2.05882 34.68388,0 18.65343,5.09637 35.87818,19.30248 44.2297,36.47841 5.43159,11.17073 7.2349,19.89625 6.7415,32.61936 -0.44837,11.56174 -1.77113,17.35849 -6.01338,26.35251 -8.99468,19.0697 -26.05245,33.09919 -46.19653,37.99525 -7.76122,1.88637 -14.12749,2.33875 -22.83244,1.62243 z"
     id="path195" />
</svg>
