<svg id="visual" viewBox="0 0 960 540" width="960" height="540" xmlns="http://www.w3.org/2000/svg" xmlns:xlink="http://www.w3.org/1999/xlink" version="1.1"><path d="M0 175L22.8 181.2C45.7 187.3 91.3 199.7 137 199.3C182.7 199 228.3 186 274 186.3C319.7 186.7 365.3 200.3 411.2 195.2C457 190 503 166 548.8 159.7C594.7 153.3 640.3 164.7 686 167.8C731.7 171 777.3 166 823 159.2C868.7 152.3 914.3 143.7 937.2 139.3L960 135L960 0L937.2 0C914.3 0 868.7 0 823 0C777.3 0 731.7 0 686 0C640.3 0 594.7 0 548.8 0C503 0 457 0 411.2 0C365.3 0 319.7 0 274 0C228.3 0 182.7 0 137 0C91.3 0 45.7 0 22.8 0L0 0Z" fill="#f2756f"></path><path d="M0 124L22.8 132.5C45.7 141 91.3 158 137 166.8C182.7 175.7 228.3 176.3 274 172.5C319.7 168.7 365.3 160.3 411.2 152.7C457 145 503 138 548.8 138.7C594.7 139.3 640.3 147.7 686 150C731.7 152.3 777.3 148.7 823 145.3C868.7 142 914.3 139 937.2 137.5L960 136L960 0L937.2 0C914.3 0 868.7 0 823 0C777.3 0 731.7 0 686 0C640.3 0 594.7 0 548.8 0C503 0 457 0 411.2 0C365.3 0 319.7 0 274 0C228.3 0 182.7 0 137 0C91.3 0 45.7 0 22.8 0L0 0Z" fill="#e8544e"></path><path d="M0 90L22.8 94.7C45.7 99.3 91.3 108.7 137 110.3C182.7 112 228.3 106 274 107.2C319.7 108.3 365.3 116.7 411.2 115.5C457 114.3 503 103.7 548.8 99.5C594.7 95.3 640.3 97.7 686 97.3C731.7 97 777.3 94 823 99C868.7 104 914.3 117 937.2 123.5L960 130L960 0L937.2 0C914.3 0 868.7 0 823 0C777.3 0 731.7 0 686 0C640.3 0 594.7 0 548.8 0C503 0 457 0 411.2 0C365.3 0 319.7 0 274 0C228.3 0 182.7 0 137 0C91.3 0 45.7 0 22.8 0L0 0Z" fill="#dc2c2c"></path><path d="M0 59L22.8 60.8C45.7 62.7 91.3 66.3 137 70.2C182.7 74 228.3 78 274 77.2C319.7 76.3 365.3 70.7 411.2 67C457 63.3 503 61.7 548.8 63.3C594.7 65 640.3 70 686 72C731.7 74 777.3 73 823 77C868.7 81 914.3 90 937.2 94.5L960 99L960 0L937.2 0C914.3 0 868.7 0 823 0C777.3 0 731.7 0 686 0C640.3 0 594.7 0 548.8 0C503 0 457 0 411.2 0C365.3 0 319.7 0 274 0C228.3 0 182.7 0 137 0C91.3 0 45.7 0 22.8 0L0 0Z" fill="#bf2528"></path><path d="M0 25L22.8 31.7C45.7 38.3 91.3 51.7 137 55C182.7 58.3 228.3 51.7 274 47.7C319.7 43.7 365.3 42.3 411.2 41.7C457 41 503 41 548.8 40.7C594.7 40.3 640.3 39.7 686 39.7C731.7 39.7 777.3 40.3 823 38.5C868.7 36.7 914.3 32.3 937.2 30.2L960 28L960 0L937.2 0C914.3 0 868.7 0 823 0C777.3 0 731.7 0 686 0C640.3 0 594.7 0 548.8 0C503 0 457 0 411.2 0C365.3 0 319.7 0 274 0C228.3 0 182.7 0 137 0C91.3 0 45.7 0 22.8 0L0 0Z" fill="#a21e24"></path></svg>